<svg id="Capa_1" enable-background="new 0 0 512 512" height="512" viewBox="0 0 512 512" width="512" xmlns="http://www.w3.org/2000/svg" xmlns:xlink="http://www.w3.org/1999/xlink"><linearGradient id="SVGID_1_" gradientUnits="userSpaceOnUse" x1="256" x2="256" y1="512" y2="0"><stop offset="0" stop-color="#a93aff"/><stop offset="1" stop-color="#ff81ff"/></linearGradient><linearGradient id="SVGID_2_" gradientUnits="userSpaceOnUse" x1="256" x2="256" y1="390.995" y2="153.578"><stop offset="0" stop-color="#ffbef9"/><stop offset="1" stop-color="#fff1ff"/></linearGradient><g><g><g><circle cx="256" cy="256" fill="url(#SVGID_1_)" r="256"/></g></g><g><g><path d="m373.422 168.578-10.605-10.605c-5.859-5.859-15.352-5.859-21.211 0l-63.633 63.633c-5.859 5.859-5.859 15.352 0 21.211l10.605 10.605c23.378 23.408 61.486 23.387 84.844 0 23.462-23.432 23.449-61.425 0-84.844zm-150 84.844 10.605-10.605c5.859-5.859 5.859-15.352 0-21.211l-63.633-63.633c-5.859-5.859-15.352-5.859-21.211 0l-10.605 10.605c-23.462 23.432-23.449 61.425 0 84.844 23.379 23.408 61.486 23.387 84.844 0zm32.578 47.578c-68.496 0-102.012 65.508-103.418 68.291-3.691 7.397-.703 16.362 6.68 20.083 7.471 3.765 16.406.732 20.127-6.621.263-.527 26.865-51.753 76.611-51.753s76.348 51.226 76.611 51.753c3.652 7.223 12.595 10.387 20.127 6.621 7.383-3.721 10.371-12.686 6.68-20.083-1.406-2.783-34.922-68.291-103.418-68.291z" fill="url(#SVGID_2_)"/></g></g></g></svg>