<svg id="Flat" height="512" viewBox="0 0 512 512" width="512" xmlns="http://www.w3.org/2000/svg"><path d="m488 304c0 128.13-103.87 184-232 184s-232-55.87-232-184 103.87-280 232-280 232 151.87 232 280z" fill="#ffc70d"/><path d="m256 456c-122.746 0-223.161-51.321-231.389-168.276-.361 5.455-.611 10.892-.611 16.276 0 128.13 103.87 184 232 184s232-55.87 232-184c0-5.384-.25-10.821-.611-16.276-8.228 116.955-108.643 168.276-231.389 168.276z" fill="#f89f00"/><path d="m256 456c-122.746 0-223.161-51.321-231.389-168.276-.361 5.455-.611 10.892-.611 16.276 0 128.13 103.87 184 232 184s232-55.87 232-184c0-5.384-.25-10.821-.611-16.276-8.228 116.955-108.643 168.276-231.389 168.276z" fill="#f89f00"/><path d="m180 160c-11.046 0-20 8.6-20 19.2 0-10.6-8.954-19.2-20-19.2s-20 8.6-20 19.2 28.954 44.8 40 44.8 40-34.2 40-44.8-8.954-19.2-20-19.2z" fill="#e42e3d"/><path d="m372 160c-11.046 0-20 8.6-20 19.2 0-10.6-8.954-19.2-20-19.2s-20 8.6-20 19.2 28.954 44.8 40 44.8 40-34.2 40-44.8-8.954-19.2-20-19.2z" fill="#e42e3d"/><path d="m276.944 248a31.867 31.867 0 0 0 -20.944-56h-2.422l-26.016 17.344a8 8 0 0 0 8.875 13.312l21.763-14.508a16 16 0 0 1 -2.2 31.852 8 8 0 0 0 0 16 16 16 0 0 1 2.195 31.852l-21.758-14.508a8 8 0 0 0 -8.875 13.312l26.016 17.344h2.422a31.867 31.867 0 0 0 20.944-56z" fill="#ef5267"/><g fill="#f597a4"><ellipse cx="112" cy="232" rx="24" ry="16"/><ellipse cx="400" cy="232" rx="24" ry="16"/></g></svg>