<svg id="Capa_1" enable-background="new 0 0 512 512" height="512" viewBox="0 0 512 512" width="512" xmlns="http://www.w3.org/2000/svg" xmlns:xlink="http://www.w3.org/1999/xlink"><linearGradient id="SVGID_1_" gradientUnits="userSpaceOnUse" x1="256" x2="256" y1="512" y2="0"><stop offset="0" stop-color="#fd5900"/><stop offset="1" stop-color="#ffde00"/></linearGradient><linearGradient id="SVGID_2_" gradientUnits="userSpaceOnUse" x1="256" x2="256" y1="421" y2="121.667"><stop offset="0" stop-color="#ffe59a"/><stop offset="1" stop-color="#ffffd5"/></linearGradient><g id="Shy_2_"><g><g><circle cx="256" cy="256" fill="url(#SVGID_1_)" r="256"/></g></g><g><g><path d="m129.291 209.418c7.471 3.662 16.406.732 20.127-6.709l16.582-33.164 16.582 33.164c3.658 7.295 12.547 10.448 20.127 6.709 7.412-3.706 10.4-12.715 6.709-20.127l-30-60c-5.098-10.166-21.738-10.166-26.836 0l-30 60c-3.691 7.412-.703 16.421 6.709 20.127zm180 0c7.471 3.662 16.406.732 20.127-6.709l16.582-33.164 16.582 33.164c3.658 7.295 12.547 10.448 20.127 6.709 7.412-3.706 10.4-12.715 6.709-20.127l-30-60c-5.098-10.166-21.738-10.166-26.836 0l-30 60c-3.691 7.412-.703 16.421 6.709 20.127zm66.709 61.582h-240c-8.291 0-15 6.709-15 15 0 74.443 60.557 135 135 135s135-60.557 135-135c0-8.291-6.709-15-15-15zm-270-45h-30c-8.291 0-15 6.709-15 15s6.709 15 15 15h30c8.291 0 15-6.709 15-15s-6.709-15-15-15zm330 0h-30c-8.291 0-15 6.709-15 15s6.709 15 15 15h30c8.291 0 15-6.709 15-15s-6.709-15-15-15z" fill="url(#SVGID_2_)"/></g></g></g></svg>