<svg id="Capa_1" enable-background="new 0 0 512 512" height="512" viewBox="0 0 512 512" width="512" xmlns="http://www.w3.org/2000/svg" xmlns:xlink="http://www.w3.org/1999/xlink"><linearGradient id="SVGID_1_" gradientUnits="userSpaceOnUse" x1="256" x2="256" y1="512" y2="0"><stop offset="0" stop-color="#5558ff"/><stop offset="1" stop-color="#00c0ff"/></linearGradient><linearGradient id="SVGID_2_" gradientUnits="userSpaceOnUse" x1="203" x2="203" y1="420.994" y2="0"><stop offset="0" stop-color="#addcff"/><stop offset=".5028" stop-color="#eaf6ff"/><stop offset="1" stop-color="#eaf6ff"/></linearGradient><g><g><g><circle cx="256" cy="256" fill="url(#SVGID_1_)" r="256"/></g></g><g><g><path d="m226 241v-15c0-8.291-6.709-15-15-15h-90c-8.291 0-15 6.709-15 15v15c0 33.091 26.924 60 60 60s60-26.909 60-60zm165-30h-90c-8.291 0-15 6.709-15 15v15c0 33.091 26.924 60 60 60s60-26.909 60-60v-15c0-8.291-6.709-15-15-15zm-316.934-203.903c-5.273-9.463-20.859-9.463-26.133 0-7.851 13.945-47.933 86.51-47.933 113.903 0 33.091 27.924 60 61 60s60-26.909 60-60c0-27.393-39.082-99.958-46.934-113.903zm181.934 323.903c-68.496 0-102.012 65.508-103.418 68.291-3.691 7.397-.703 16.362 6.68 20.083 7.471 3.75 16.406.762 20.127-6.621.263-.527 26.865-51.753 76.611-51.753s76.348 51.226 76.611 51.753c3.652 7.222 12.595 10.387 20.127 6.621 7.383-3.721 10.371-12.686 6.68-20.083-1.406-2.783-34.922-68.291-103.418-68.291zm-90-150c41.367 0 75-33.647 75-75 0-8.291-6.709-15-15-15s-15 6.709-15 15c0 24.814-20.186 45-45 45-8.291 0-15 6.709-15 15s6.709 15 15 15zm180 0c8.291 0 15-6.709 15-15s-6.709-15-15-15c-24.814 0-45-20.186-45-45 0-8.291-6.709-15-15-15s-15 6.709-15 15c0 41.353 33.633 75 75 75z" fill="url(#SVGID_2_)"/></g></g></g></svg>