<svg id="Capa_1" enable-background="new 0 0 512 512" height="512" viewBox="0 0 512 512" width="512" xmlns="http://www.w3.org/2000/svg" xmlns:xlink="http://www.w3.org/1999/xlink"><linearGradient id="SVGID_1_" gradientUnits="userSpaceOnUse" x1="256" x2="256" y1="512" y2="0"><stop offset="0" stop-color="#00b59c"/><stop offset="1" stop-color="#9cffac"/></linearGradient><linearGradient id="SVGID_2_" gradientUnits="userSpaceOnUse" x1="241" x2="241" y1="421" y2="151"><stop offset="0" stop-color="#c3ffe8"/><stop offset=".9973" stop-color="#f0fff4"/></linearGradient><g id="Fed_Up_2_"><g><g><circle cx="256" cy="256" fill="url(#SVGID_1_)" r="256"/></g></g><g><g><path d="m256 241c-41.367 0-75 40.371-75 90s33.633 90 75 90 75-40.371 75-90-33.633-90-75-90zm-45-45v-30c0-8.291-6.709-15-15-15-3.717 0-85.906 0-90 0-8.291 0-15 6.709-15 15s6.709 15 15 15h15v15c0 24.814 20.186 45 45 45s45-20.186 45-45zm165-45c-3.717 0-85.906 0-90 0-8.291 0-15 6.709-15 15s6.709 15 15 15h15v15c0 24.814 20.186 45 45 45s45-20.186 45-45v-30c0-8.291-6.709-15-15-15z" fill="url(#SVGID_2_)"/></g></g></g></svg>